<svg width="106" height="157" viewBox="0 0 106 157" fill="none" xmlns="http://www.w3.org/2000/svg">
<path fill-rule="evenodd" clip-rule="evenodd" d="M40.2213 68C35.4101 79.638 28.2063 105.538 37.8807 116.032H40.2213H65.8742V68H40.2213ZM68.2149 116.032C77.8893 105.538 70.6855 79.638 65.8744 68V116.032H68.2149Z" fill="#ADADAD"/>
<path d="M51.0659 113.719C34.3136 107.582 45.5362 92.3657 53.2415 85.5249C70.2113 103.784 62.1253 111.929 55.961 113.719C59.8771 107.428 55.7797 104.577 53.2415 103.938C48.4551 105.932 49.7968 111.29 51.0659 113.719Z" fill="#D9D9D9"/>
<path d="M31.6188 145.484V143.18L38.4079 132.453H40.3297V135.734H39.1579L34.5876 142.977V143.102H44.0641V145.484H31.6188ZM39.2516 148.453V144.781L39.2829 143.75V132.453H42.0172V148.453H39.2516ZM52.4743 148.758C51.1878 148.758 50.0837 148.432 49.1618 147.781C48.2451 147.125 47.5394 146.18 47.0446 144.945C46.555 143.706 46.3102 142.214 46.3102 140.469C46.3154 138.724 46.5628 137.24 47.0524 136.016C47.5472 134.786 48.2529 133.849 49.1696 133.203C50.0915 132.557 51.193 132.234 52.4743 132.234C53.7555 132.234 54.8571 132.557 55.779 133.203C56.7008 133.849 57.4066 134.786 57.8962 136.016C58.3909 137.245 58.6383 138.729 58.6383 140.469C58.6383 142.219 58.3909 143.714 57.8962 144.953C57.4066 146.188 56.7008 147.13 55.779 147.781C54.8623 148.432 53.7607 148.758 52.4743 148.758ZM52.4743 146.312C53.4743 146.312 54.2633 145.82 54.8415 144.836C55.4248 143.846 55.7165 142.391 55.7165 140.469C55.7165 139.198 55.5837 138.13 55.318 137.266C55.0524 136.401 54.6774 135.75 54.193 135.313C53.7087 134.87 53.1357 134.648 52.4743 134.648C51.4795 134.648 50.693 135.143 50.1149 136.133C49.5368 137.117 49.2451 138.562 49.2399 140.469C49.2347 141.745 49.3623 142.818 49.6227 143.687C49.8883 144.557 50.2633 145.214 50.7477 145.656C51.2321 146.094 51.8076 146.312 52.4743 146.312ZM60.945 145.484V143.18L67.734 132.453H69.6559V135.734H68.484L63.9137 142.977V143.102H73.3903V145.484H60.945ZM68.5778 148.453V144.781L68.609 143.75V132.453H71.3434V148.453H68.5778Z" fill="#ADADAD"/>
<path d="M63.6438 9.72335C63.6438 15.0934 59.0954 19.4467 53.4847 19.4467C47.874 19.4467 43.3257 15.0934 43.3257 9.72335C43.3257 4.35329 47.874 0 53.4847 0C59.0954 0 63.6438 4.35329 63.6438 9.72335Z" fill="#ADADAD"/>
<path d="M27.0711 21.7804C26.6637 19.1704 29.6758 16.82 32.7749 16.8539H73.7885C76.4887 16.8539 79.2208 19.2027 79.2208 21.7804L77.5276 34.2263C77.6032 36.7581 76.3313 38.8245 73.5169 38.8935H32.7749C30.0748 38.8935 28.4291 36.8039 28.4291 34.2263L27.0711 21.7804Z" fill="#ADADAD"/>
<path d="M10.9133 48.7558L9.46808 48.3542L9.43978 48.456L9.42605 48.5608L10.9133 48.7558ZM2 116.758L0.512722 116.563L0.480681 116.807L0.528567 117.049L2 116.758ZM16.5854 135.618L17.5784 136.742L19.2271 135.286L17.2695 134.283L16.5854 135.618ZM8.21232 148.634L6.78071 148.186L6.71232 148.405V148.634H8.21232ZM8.21232 155.275H6.71232V156.775H8.21232V155.275ZM94.8057 48.7558L96.2929 48.5608L96.2792 48.456L96.2509 48.3542L94.8057 48.7558ZM103.719 116.758L105.19 117.049L105.238 116.807L105.206 116.563L103.719 116.758ZM89.1336 135.618L88.4495 134.283L86.4919 135.286L88.1406 136.742L89.1336 135.618ZM97.5067 148.634H99.0067V148.405L98.9383 148.186L97.5067 148.634ZM97.5067 155.275V156.775H99.0067V155.275H97.5067ZM27.1199 43.9744V42.4744H26.9691L26.8213 42.5044L27.1199 43.9744ZM19.557 49.8183L18.1999 49.1794L18.1002 49.3911L18.0698 49.6232L19.557 49.8183ZM10.9138 115.695L9.42656 115.5L9.39465 115.743L9.44189 115.984L10.9138 115.695ZM22.7948 130.307L22.3327 131.734L23.105 131.984L23.7367 131.474L22.7948 130.307ZM33.3322 121.805V120.305H32.8025L32.3903 120.638L33.3322 121.805ZM78.3295 43.9743L78.628 42.5043L78.4803 42.4743H78.3295V43.9743ZM85.8923 49.8182L87.3796 49.6231L87.3491 49.391L87.2494 49.1792L85.8923 49.8182ZM94.5356 115.695L96.0075 115.984L96.0547 115.743L96.0228 115.5L94.5356 115.695ZM82.3776 129.776L81.4574 130.96L82.0844 131.447L82.8397 131.203L82.3776 129.776ZM72.1172 121.805L73.0374 120.62L72.6314 120.305H72.1172V121.805ZM28.8441 33.9833C23.0223 34.6316 18.7961 35.6993 15.6984 37.9615C12.542 40.2666 10.7771 43.6434 9.46808 48.3542L12.3586 49.1574C13.5869 44.7367 15.0968 42.1156 17.4677 40.3842C19.8973 38.6099 23.4508 37.6024 29.1761 36.9649L28.8441 33.9833ZM9.42605 48.5608L0.512722 116.563L3.48728 116.953L12.4006 48.9507L9.42605 48.5608ZM0.528567 117.049C1.50953 122.004 2.81222 125.747 5.21859 128.896C7.62038 132.039 11.0137 134.448 15.9014 136.953L17.2695 134.283C12.5472 131.863 9.60974 129.701 7.60225 127.074C5.59934 124.453 4.41429 121.228 3.47143 116.467L0.528567 117.049ZM15.5925 134.494C13.2319 136.579 11.5054 138.41 10.1242 140.552C8.74422 142.692 7.75576 145.069 6.78071 148.186L9.64393 149.082C10.5779 146.096 11.4694 144.001 12.6454 142.178C13.8203 140.356 15.3259 138.732 17.5784 136.742L15.5925 134.494ZM9.71232 155.275V148.634H6.71232V155.275H9.71232ZM8.21232 156.775H54.6697V153.775H8.21232V156.775ZM76.5429 36.9649C82.2682 37.6024 85.8217 38.6099 88.2513 40.3842C90.6222 42.1156 92.1321 44.7367 93.3604 49.1574L96.2509 48.3542C94.9419 43.6434 93.177 40.2666 90.0206 37.9615C86.9229 35.6993 82.6967 34.6316 76.8749 33.9833L76.5429 36.9649ZM93.3184 48.9507L102.232 116.953L105.206 116.563L96.2929 48.5608L93.3184 48.9507ZM102.248 116.467C101.305 121.228 100.12 124.453 98.1167 127.074C96.1093 129.701 93.1718 131.863 88.4495 134.283L89.8176 136.953C94.7052 134.448 98.0986 132.039 100.5 128.896C102.907 125.747 104.209 122.004 105.19 117.049L102.248 116.467ZM88.1406 136.742C90.3931 138.732 91.8987 140.356 93.0736 142.178C94.2496 144.001 95.1411 146.096 96.0751 149.082L98.9383 148.186C97.9632 145.069 96.9748 142.692 95.5948 140.552C94.2136 138.41 92.4871 136.579 90.1265 134.494L88.1406 136.742ZM99.0067 155.275V148.634H96.0067V155.275H99.0067ZM97.5067 153.775H51.0493V156.775H97.5067V153.775ZM53.8598 42.4744H27.1199V45.4744H53.8598V42.4744ZM26.8213 42.5044C24.6501 42.9453 22.9334 43.5381 21.5149 44.6358C20.0915 45.7372 19.1168 47.2319 18.1999 49.1794L20.9142 50.4572C21.7439 48.6948 22.4698 47.6901 23.3509 47.0084C24.2367 46.3229 25.428 45.8486 27.4184 45.4444L26.8213 42.5044ZM18.0698 49.6232L9.42656 115.5L12.4011 115.89L21.0443 50.0134L18.0698 49.6232ZM9.44189 115.984C10.2021 119.858 10.9217 123.091 12.7682 125.696C14.6644 128.371 17.5983 130.201 22.3327 131.734L23.257 128.88C18.8192 127.443 16.5822 125.889 15.2156 123.961C13.7995 121.963 13.1646 119.376 12.3857 115.407L9.44189 115.984ZM23.7367 131.474L34.2741 122.972L32.3903 120.638L21.8529 129.139L23.7367 131.474ZM33.3322 123.305H52.7794V120.305H33.3322V123.305ZM51.5895 45.4743H78.3295V42.4743H51.5895V45.4743ZM78.031 45.4443C80.0214 45.8485 81.2127 46.3228 82.0985 47.0083C82.9795 47.69 83.7054 48.6947 84.5352 50.4571L87.2494 49.1792C86.3326 47.2318 85.3578 45.7371 83.9345 44.6357C82.516 43.538 80.7992 42.9452 78.628 42.5043L78.031 45.4443ZM84.4051 50.0133L93.0483 115.89L96.0228 115.5L87.3796 49.6231L84.4051 50.0133ZM93.0636 115.406C92.2911 119.343 91.5918 121.784 90.1386 123.637C88.7127 125.455 86.3996 126.896 81.9154 128.349L82.8397 131.203C87.5277 129.684 90.524 128.007 92.4993 125.488C94.4473 123.005 95.2409 119.891 96.0075 115.984L93.0636 115.406ZM83.2978 128.591L73.0374 120.62L71.197 122.989L81.4574 130.96L83.2978 128.591ZM72.1172 120.305H52.6699V123.305H72.1172V120.305Z" fill="#ADADAD"/>
<path d="M60.9343 9.72323C60.9343 13.6613 57.5989 16.8537 53.4844 16.8537C49.3699 16.8537 46.0344 13.6613 46.0344 9.72323C46.0344 5.78519 49.3699 2.59277 53.4844 2.59277C57.5989 2.59277 60.9343 5.78519 60.9343 9.72323Z" fill="#F3F1E8"/>
<path d="M29.8135 23.2143C29.4487 21.2185 32.146 19.4211 34.9212 19.4471H71.6474C74.0653 19.4471 76.5118 21.2432 76.5118 23.2143L74.9957 32.7316C75.0633 34.6677 73.9244 36.2478 71.4042 36.3006H34.9212C32.5033 36.3006 31.0296 34.7027 31.0296 32.7316L29.8135 23.2143Z" fill="#F3F1E8"/>
</svg>
